<?xml version="1.0"?><svg width="1500" height="1052.36" xmlns="http://www.w3.org/2000/svg">

 <metadata id="metadata7">image/svg+xml</metadata>
 <g>
  <title>Layer 1</title>
  <g display="inline" id="g3780">
   <path fill="#ffffff" stroke="#000000" stroke-width="10" stroke-miterlimit="4" d="m928.25592,50.288548c-43.848999,-7.138699 -94.689819,4.470539 -129.299561,32.324879c-220.881287,177.768135 -479.69278,387.433998 -670.741272,545.482338c-56.459999,46.707581 -121.542578,107.543823 -44.446716,208.091431c25.389511,25.094238 56.119324,39.029236 86.873123,54.548218c89.606583,43.656372 187.369736,83.435913 278.802139,117.177795c112.438995,32.367432 187.509735,22.012329 272.74118,-50.50769c174.517822,-187.719177 456.731445,-484.210571 670.741333,-711.147415c20.661255,-21.625336 27.757324,-47.473785 24.243652,-76.771591c-3.536621,-29.488617 -45.623779,-42.684074 -74.751221,-48.487312c-133.994751,-26.696564 -279.262329,-48.74865 -414.162659,-70.710651z" id="path3782"/>
   <path fill="#ffffff" stroke="#000000" stroke-width="5" stroke-miterlimit="4" d="m116.90519,649.309143c-60.441658,53.924316 -55.268929,107.221375 -16.162437,124.248779c120.902481,52.642151 239.744522,100.265259 377.797043,148.492432c69.772827,24.374329 163.028442,-1.151123 215.162476,-53.538086c229.41748,-230.530518 452.420776,-454.504211 676.802246,-684.883469c36.085449,-37.050125 -17.360474,-50.365616 -39.395996,-54.548233c-135.269897,-25.675919 -271.161133,-49.959404 -408.101624,-70.710686c-37.466064,-5.677422 -80.828552,4.227341 -110.106628,28.284271c-228.178284,187.487511 -486.680267,389.18676 -695.995079,562.654991z" id="path3786"/>
   <path fill="#ffffff" stroke="#000000" stroke-width="5" stroke-miterlimit="4" d="m181,638.073975l518.570984,185.715027l599.998962,-598.572006l-499.998962,-98.570992l-618.570984,511.427971z" id="path3790"/>
   <path fill="#ffffff" fill-rule="nonzero" stroke="#000000" stroke-width="5" stroke-miterlimit="4" d="m307.142548,746.645691c12.863983,-10.469788 23.846222,-12.767761 41.428558,-7.142883c25.279663,8.087402 52.362579,19.2948 77.142883,27.142883c16.96225,5.37207 23.332855,14.176514 11.846985,26.551147c-9.865143,10.628418 -18.312714,17.441284 -30,27.142822c-18.328735,15.2146 -34.209076,15.229736 -50.418427,9.163147c-24.390167,-9.128357 -48.652008,-19.582825 -72.857147,-28.571411c-27.940002,-10.375488 -15.582977,-18.737488 -2.265411,-31.341919c7.049438,-6.671936 17.070251,-16.390137 25.122559,-22.943787z" id="path3794"/>
   <path fill="#ffffff" stroke="#000000" stroke-width="3" stroke-miterlimit="4" id="path3054" d="m295.357147,583.788574c-13.427826,11.381531 -29.565491,25.244019 -41.428574,36.785706c-1.279907,1.245239 -1.65834,4.694824 0,5.357117c16.851456,6.730164 33.155716,12.641418 49.285721,17.857178c3.668701,1.186279 8.473114,0.690613 11.428589,-1.785706c15.746094,-13.193359 29.973022,-24.789307 43.737305,-38.005127c1.499695,-1.439941 4.304138,-4.325745 1.096802,-5.566345c-14.888733,-5.758789 -34.805115,-12.009216 -52.691284,-17.857117c-3.761383,-1.229797 -8.40976,0.655518 -11.428558,3.214294z"/>
   <path fill="#ffffff" stroke="#000000" stroke-width="3" stroke-miterlimit="4" id="path3824" d="m370.220917,660.420776c12.512268,-10.640076 31.651733,-28.500671 46.214478,-39.648499c2.354736,-1.802551 5.967163,-1.75 8.838837,-1.010132c17.511108,4.511597 34.962708,11.123657 50.255096,16.162415c1.796661,0.59198 3.371429,3.979309 2.020294,5.303284c-14.627563,14.333923 -31.23819,28.207336 -45.204315,40.406128c-2.439056,2.130432 -6.27124,3.80072 -9.343903,2.777954c-17.362915,-5.779541 -34.094025,-11.266541 -52.022888,-18.435303c-1.735474,-0.693909 -2.181488,-4.345032 -0.757599,-5.555847z"/>
   <path fill="#ffffff" stroke="#000000" stroke-width="3" stroke-miterlimit="4" id="path3834" d="m490.176514,700.059143c-1.727753,1.726685 -2.041748,6.485229 0.252533,7.323608c20.688293,7.559692 40.783234,14.445496 61.366791,21.213196c2.854309,0.938477 6.653625,0.294495 8.838806,-1.767761c14.516846,-13.700195 29.255493,-27.871826 40.911194,-41.163696c1.613342,-1.839844 -0.965088,-5.781677 -3.28302,-6.56604c-15.379639,-5.204285 -34.207703,-12.108521 -51.265198,-16.920044c-4.539917,-1.280579 -10.455872,-2.437988 -14.142151,0.505066c-13.791016,11.010498 -30.873291,25.577393 -42.678955,37.375671z"/>
   <path fill="#ffffff" stroke="#000000" stroke-width="3" stroke-miterlimit="4" id="path3836" d="m621.243835,743.000793c-1.834106,1.97467 -2.238281,7.052063 0.252563,8.081238c17.126953,7.07666 37.800293,13.725952 55.55835,19.9505c4.948364,1.734436 11.886414,2.128113 15.65741,-1.515259c13.849121,-13.380432 29.568481,-28.098022 43.436523,-42.678894c1.536011,-1.61499 0.833374,-5.808411 -1.262695,-6.56604c-17.06488,-6.168152 -39.634216,-13.698975 -60.609131,-20.203064c-3.502808,-1.086182 -8.183655,-0.740479 -10.859131,1.767822c-13.749878,12.890381 -28.769226,26.73175 -42.173889,41.163696z"/>
  </g>
 </g>
</svg>
