<?xml version="1.0" encoding="utf-8"?>
<!-- Generator: Adobe Illustrator 16.0.0, SVG Export Plug-In . SVG Version: 6.00 Build 0)  -->
<!DOCTYPE svg PUBLIC "-//W3C//DTD SVG 1.0//EN" "http://www.w3.org/TR/2001/REC-SVG-20010904/DTD/svg10.dtd">
<svg version="1.0" id="Layer_1" xmlns="http://www.w3.org/2000/svg" xmlns:xlink="http://www.w3.org/1999/xlink" x="0px" y="0px"
	 width="100px" height="100px" viewBox="0 0 100 100" enable-background="new 0 0 100 100" xml:space="preserve">
<path fill-rule="evenodd" clip-rule="evenodd" d="M34.217,51.57c0-4.705,0-9.546,0-14.388c-0.001-5.765-0.022-11.529,0.006-17.294
	c0.019-3.751,2.846-7.021,6.489-7.604c3.918-0.628,7.646,1.508,8.805,5.144c0.292,0.914,0.38,1.925,0.388,2.893
	c0.036,5.059,0.017,10.118,0.017,15.178c0,0.331,0,0.663,0,1.099c5.067-1.936,8.851-0.569,11.436,4.225
	c2.116-1.176,4.38-1.563,6.747-0.765c2.374,0.802,3.993,2.434,4.966,4.743c2.771-1.55,5.536-1.736,8.265-0.145
	c2.446,1.427,3.88,3.581,3.897,6.458c0.044,7.205,0.035,14.411,0.002,21.616c-0.03,6.516-2.653,11.929-7.199,16.479
	c-2.668,2.671-5.739,4.787-9.161,6.37c-0.696,0.322-1.522,0.503-2.291,0.507c-6.776,0.04-13.554-0.04-20.329,0.052
	c-3.396,0.047-6.218-1.109-8.676-3.349c-3.172-2.892-5.557-6.398-7.486-10.169c-2.971-5.802-5.683-11.736-8.586-17.573
	c-1.402-2.819-2.905-5.596-4.517-8.3c-2.213-3.714-1.842-8.003,1.081-10.579c3.02-2.663,7.832-2.53,10.715,0.265
	C30.583,48.176,32.423,49.876,34.217,51.57z M38.151,38.249c0,2.207,0,4.415,0,6.622c0,3.833,0.026,7.666-0.025,11.497
	c-0.008,0.627-0.207,1.369-0.584,1.847c-0.734,0.931-1.989,0.792-2.967-0.205c-2.897-2.955-5.777-5.928-8.681-8.878
	c-1.173-1.191-2.597-1.298-4.082-0.739c-1.476,0.556-2.425,1.877-2.295,3.418c0.08,0.944,0.308,1.995,0.817,2.767
	c2.38,3.596,4.076,7.533,5.961,11.382c2.704,5.523,5.396,11.058,8.268,16.495c1.604,3.036,3.631,5.832,6.365,8.014
	c1.325,1.058,2.791,1.711,4.547,1.704c6.929-0.027,13.858-0.006,20.787-0.024c0.439-0.001,0.916-0.11,1.312-0.3
	c2.757-1.321,5.253-3.035,7.44-5.171c3.785-3.696,6.193-8.099,6.274-13.472c0.11-7.296,0.045-14.594,0.032-21.891
	c-0.004-2.321-2.051-4.049-4.354-3.788c-1.744,0.197-3.442,1.633-3.522,3.744c-0.043,1.146-0.964,1.887-2.011,1.837
	c-1.045-0.05-1.82-0.874-1.882-2.008c-0.012-0.214-0.003-0.43-0.003-0.644c0-0.95,0.007-1.901-0.001-2.852
	c-0.018-2.238-1.546-3.904-3.686-4.028c-2.148-0.124-3.882,1.36-4.148,3.554c-0.159,1.307-0.938,2.104-2.018,2.066
	c-1.145-0.039-1.909-0.928-1.92-2.251c-0.01-1.134,0.004-2.269-0.004-3.403c-0.012-1.73-1.041-3.146-2.663-3.674
	c-2.438-0.795-4.835,0.741-5.171,3.315c-0.169,1.287-0.716,1.938-1.72,2.048c-1.328,0.145-2.219-0.757-2.22-2.281
	c-0.005-7.635,0-15.269-0.005-22.903c-0.002-1.805-0.956-3.151-2.591-3.718c-2.411-0.835-5.3,0.809-5.271,3.892
	C38.189,26.229,38.149,32.239,38.151,38.249z"/>
<path fill-rule="evenodd" clip-rule="evenodd" d="M24.357,10.889c0,3.55,0,10.975,0,14.4c0,1.256,0.008,2.512-0.002,3.768
	c-0.011,1.505-0.738,2.347-1.989,2.324c-1.189-0.021-1.925-0.886-1.927-2.307c-0.006-4.632-0.002-12.601-0.002-17.233
	c0-0.294,0-0.587,0-0.86c-0.854,0.796-2.668,2.562-3.491,3.316c-1.179,1.081-2.951,0.681-3.266-0.823
	c-0.119-0.566,0.068-1.411,0.446-1.833c1.9-2.12,4.892-5.16,6.892-7.188c0.791-0.804,2.01-0.782,2.809,0.03
	c1.997,2.031,4.971,5.086,6.921,7.162c0.743,0.791,0.65,2.021-0.109,2.73c-0.783,0.731-1.908,0.722-2.736-0.05
	C27.079,13.558,25.276,11.77,24.357,10.889z"/>
</svg>
